<?xml version="1.0" encoding="utf-8"?>
<!-- Generator: Adobe Illustrator 16.0.0, SVG Export Plug-In . SVG Version: 6.00 Build 0)  -->
<!DOCTYPE svg PUBLIC "-//W3C//DTD SVG 1.0//EN" "http://www.w3.org/TR/2001/REC-SVG-20010904/DTD/svg10.dtd">
<svg version="1.0" id="TEXTES" xmlns="http://www.w3.org/2000/svg" xmlns:xlink="http://www.w3.org/1999/xlink" x="0px" y="0px"
	 width="761.01px" height="401.429px" viewBox="0 0 761.01 401.429" enable-background="new 0 0 761.01 401.429"
	 xml:space="preserve">
<g>
	<g>
		<path d="M372.064,270.452c0-2.746-1.599-4.463-5.525-5.928c-3.658-1.33-3.932-2.156-3.932-3.316c0-1.334,1.224-2.301,2.91-2.301
			c1.447,0,2.777,0.543,4.066,1.658l0.468,0.404l1.911-2.463l-0.417-0.363c-1.752-1.527-3.642-2.236-5.948-2.236
			c-3.521,0-6.176,2.357-6.176,5.539c0,3.201,2.193,4.662,5.741,5.982c3.442,1.221,3.715,2.115,3.715,3.184
			c0,1.494-1.284,2.539-3.122,2.539c-1.761,0-3.202-0.643-4.819-2.146l-0.456-0.426l-1.993,2.416l0.404,0.377
			c2.008,1.869,4.245,2.779,6.836,2.779C369.4,276.151,372.064,273.776,372.064,270.452z"/>
		<path d="M390.007,271.222c-1.408,1.352-2.618,1.904-4.176,1.904c-3.16,0-5.453-2.975-5.453-7.07v-0.105
			c0-4.066,2.293-7.018,5.453-7.018c1.494,0,2.779,0.564,4.045,1.771l0.461,0.441l1.962-2.432l-0.402-0.373
			c-1.223-1.133-3.015-2.434-6.041-2.434c-5.052,0-8.719,4.234-8.719,10.068v0.16c0,5.803,3.611,10.016,8.586,10.016
			c2.444,0,4.385-0.836,6.292-2.711l0.392-0.387l-1.956-2.26L390.007,271.222z"/>
		<rect x="397.769" y="256.173" width="3.16" height="19.713"/>
		<polygon points="410.965,267.437 419.335,267.437 419.335,264.464 410.965,264.464 410.965,259.171 420.289,259.171 
			420.289,256.173 407.805,256.173 407.805,275.886 420.421,275.886 420.421,272.886 410.965,272.886 		"/>
		<polygon points="437.813,269.411 429.019,256.173 426.237,256.173 426.237,275.886 429.343,275.886 429.343,262.302 
			438.376,275.886 440.946,275.886 440.946,256.173 437.813,256.173 		"/>
		<path d="M459.815,271.222c-1.407,1.352-2.618,1.904-4.178,1.904c-3.159,0-5.453-2.975-5.453-7.07v-0.105
			c0-4.066,2.294-7.018,5.453-7.018c1.494,0,2.779,0.564,4.047,1.771l0.461,0.441l1.962-2.432l-0.401-0.373
			c-1.223-1.133-3.015-2.434-6.041-2.434c-5.052,0-8.719,4.234-8.719,10.068v0.16c0,5.803,3.61,10.016,8.586,10.016
			c2.445,0,4.386-0.836,6.292-2.711l0.393-0.387l-1.956-2.26L459.815,271.222z"/>
		<polygon points="470.55,267.437 478.919,267.437 478.919,264.464 470.55,264.464 470.55,259.171 479.874,259.171 479.874,256.173 
			467.392,256.173 467.392,275.886 480.007,275.886 480.007,272.886 470.55,272.886 		"/>
		<path d="M491.628,273.151c-1.761,0-3.202-0.643-4.819-2.148l-0.456-0.424l-1.991,2.416l0.404,0.377
			c2.008,1.869,4.244,2.779,6.835,2.779c3.67,0,6.334-2.375,6.334-5.699c0-2.746-1.599-4.463-5.524-5.928
			c-3.656-1.33-3.931-2.156-3.931-3.316c0-1.334,1.225-2.301,2.91-2.301c1.446,0,2.776,0.543,4.065,1.658l0.468,0.404l1.912-2.463
			l-0.418-0.363c-1.752-1.527-3.643-2.236-5.949-2.236c-3.52,0-6.174,2.357-6.174,5.539c0,3.201,2.192,4.662,5.739,5.982
			c3.443,1.221,3.718,2.115,3.718,3.184C494.751,272.106,493.467,273.151,491.628,273.151z"/>
		<polygon points="363.111,300.034 371.482,300.034 371.482,297.062 363.111,297.062 363.111,291.771 372.436,291.771 
			372.436,288.771 359.952,288.771 359.952,308.485 372.568,308.485 372.568,305.485 363.111,305.485 		"/>
		<polygon points="377.165,291.796 382.357,291.796 382.357,308.485 385.517,308.485 385.517,291.796 390.735,291.796 
			390.735,288.771 377.165,288.771 		"/>
		<polygon points="405.315,291.796 410.508,291.796 410.508,308.485 413.667,308.485 413.667,291.796 418.886,291.796 
			418.886,288.771 405.315,288.771 		"/>
		<polygon points="427.542,300.034 435.913,300.034 435.913,297.062 427.542,297.062 427.542,291.771 436.866,291.771 
			436.866,288.771 424.384,288.771 424.384,308.485 436.999,308.485 436.999,305.485 427.542,305.485 		"/>
		<path d="M454.89,303.821c-1.407,1.35-2.617,1.902-4.178,1.902c-3.159,0-5.453-2.975-5.453-7.07v-0.105
			c0-4.064,2.294-7.016,5.453-7.016c1.494,0,2.779,0.563,4.047,1.771l0.461,0.439l1.962-2.432l-0.401-0.371
			c-1.223-1.135-3.015-2.436-6.041-2.436c-5.052,0-8.719,4.234-8.719,10.07v0.158c0,5.805,3.61,10.016,8.586,10.016
			c2.444,0,4.385-0.836,6.292-2.711l0.393-0.385l-1.956-2.26L454.89,303.821z"/>
		<polygon points="473.405,297.062 465.624,297.062 465.624,288.771 462.466,288.771 462.466,308.485 465.624,308.485 
			465.624,300.087 473.405,300.087 473.405,308.485 476.565,308.485 476.565,288.771 473.405,288.771 		"/>
		<polygon points="494.856,302.009 486.062,288.771 483.282,288.771 483.282,308.485 486.388,308.485 486.388,294.899 
			495.421,308.485 497.989,308.485 497.989,288.771 494.856,288.771 		"/>
		<path d="M512.575,288.479c-4.976,0-8.586,4.234-8.586,10.068v0.213c0,5.803,3.6,10.016,8.561,10.016
			c4.959,0,8.559-4.234,8.559-10.068v-0.213C521.108,292.69,517.52,288.479,512.575,288.479z M512.575,305.776
			c-3.099,0-5.348-2.973-5.348-7.068v-0.186c0-4.082,2.238-7.043,5.322-7.043c3.099,0,5.348,2.973,5.348,7.068v0.186
			C517.897,302.815,515.659,305.776,512.575,305.776z"/>
		<polygon points="530.267,288.771 527.108,288.771 527.108,308.485 538.876,308.485 538.876,305.485 530.267,305.485 		"/>
		<path d="M551.239,288.479c-4.976,0-8.586,4.234-8.586,10.068v0.213c0,5.803,3.6,10.016,8.561,10.016
			c4.959,0,8.559-4.234,8.559-10.068v-0.213C559.772,292.69,556.184,288.479,551.239,288.479z M551.239,305.776
			c-3.099,0-5.348-2.973-5.348-7.068v-0.186c0-4.082,2.238-7.043,5.322-7.043c3.099,0,5.348,2.973,5.348,7.068v0.186
			C556.562,302.815,554.323,305.776,551.239,305.776z"/>
		<path d="M572.819,300.405h4.635v4.336c-0.946,0.652-2.2,1.035-3.414,1.035c-3.489,0-5.744-2.785-5.744-7.096v-0.133
			c0-4.064,2.338-7.016,5.559-7.016c1.617,0,2.84,0.471,4.088,1.574l0.477,0.422l1.912-2.547l-0.436-0.357
			c-1.818-1.484-3.609-2.119-5.988-2.119c-5.128,0-8.85,4.225-8.85,10.043v0.186c0,5.992,3.577,10.016,8.902,10.016
			c3.069,0,5.301-1.441,6.358-2.303l0.216-0.176v-8.811h-7.715V300.405z"/>
		<rect x="587.065" y="288.771" width="3.158" height="19.715"/>
		<polygon points="600.261,300.034 608.63,300.034 608.63,297.062 600.261,297.062 600.261,291.771 609.585,291.771 
			609.585,288.771 597.103,288.771 597.103,308.485 609.718,308.485 609.718,305.485 600.261,305.485 		"/>
		<path d="M622.121,297.124c-3.658-1.33-3.933-2.156-3.933-3.316c0-1.334,1.225-2.303,2.91-2.303c1.447,0,2.778,0.543,4.067,1.658
			l0.468,0.406l1.91-2.463l-0.418-0.365c-1.752-1.525-3.642-2.236-5.947-2.236c-3.521,0-6.176,2.359-6.176,5.541
			c0,3.201,2.193,4.662,5.741,5.982c3.441,1.219,3.716,2.113,3.716,3.182c0,1.496-1.284,2.541-3.123,2.541
			c-1.761,0-3.201-0.643-4.817-2.148l-0.455-0.424l-1.994,2.416l0.404,0.375c2.008,1.871,4.244,2.779,6.837,2.779
			c3.67,0,6.334-2.373,6.334-5.697C627.646,300.304,626.047,298.587,622.121,297.124z"/>
	</g>
	<g>
		<g>
			<path d="M324.083,267.296l-7.927,2.148l-1.704-9.334l12.816-3.854h7.408v52.229h-10.593V267.296z"/>
		</g>
	</g>
	<g>
		<g>
			<g>
				<path fill="#AE2573" d="M278.83,92.942H92.943v128.404c0,53.477,40.018,89.494,92.761,89.494
					c14.226,0,27.537-2.635,39.406-7.514l0.005,0.012l22.152-9.256l31.563,14.402V92.942z"/>
			</g>
			<g>
				<polygon fill="#FFFFFF" points="185.764,263.315 144.647,244.558 144.647,134.286 185.764,134.286 				"/>
				<polygon fill="#FFFFFF" points="239.054,223.104 198.895,241.427 198.895,263.315 239.054,244.993 				"/>
			</g>
		</g>
	</g>
	<g>
		<path d="M446.034,146.61c-4.08-8.053-9.438-21.938-10.551-36.371c-1.496,0-8.447,0-8.447,0s2.006,26.002,14.611,43.348h8.775
			c12.607-17.346,14.611-43.348,14.611-43.348s-6.949,0-8.447,0C455.474,124.673,450.118,138.558,446.034,146.61z"/>
		<path d="M618.487,92.897h-8.664v17.342h-5.289v6.621h5.289v24.301c0,6.656,3.449,12.426,12.057,12.426h4.605v-7.715h-3.117
			c-3.637,0-4.881-1.781-4.881-5.238V116.86h7.998v-6.621h-7.998V92.897z"/>
		<path d="M342.594,132.772c0,8.051-4.968,13.252-12.659,13.252c-7.69,0-12.66-5.201-12.66-13.252v-39.83h-8.841v40.256
			c0,5.928,2.188,11.26,6.161,15.014c3.903,3.691,9.351,5.725,15.34,5.725c4.889,0,9.417-1.355,13.039-3.861l8.461,3.861V92.942
			h-8.841V132.772z"/>
		<path d="M393.593,113.909c-2.521-2.438-6.762-4.301-12.981-4.301c-4.087,0-7.859,1.555-10.231,3.23l-7.086-3.23v43.98h8.671
			v-26.25c0-6.721,3.804-9.607,8.646-9.607s8.646,2.887,8.646,9.607v26.25h8.672V126.06
			C397.929,121.22,396.907,117.142,393.593,113.909z"/>
		<path d="M523.366,127.339c0-6.721,3.801-9.607,8.645-9.607c1.697,0,3.264,0.355,4.588,1.104c1.48-2.4,3.117-5.057,4.6-7.459
			c-2.371-1.082-5.416-1.768-9.188-1.768c-4.086,0-7.859,1.555-10.232,3.23l-7.084-3.23v43.98h8.672V127.339z"/>
		<rect x="408.802" y="110.239" width="8.663" height="43.35"/>
		<rect x="408.802" y="92.899" width="8.663" height="8.668"/>
		<rect x="586.386" y="110.239" width="8.664" height="43.35"/>
		<rect x="586.386" y="92.899" width="8.664" height="8.668"/>
		<rect x="452.36" y="190.229" width="8.664" height="43.35"/>
		<rect x="452.36" y="172.888" width="8.664" height="8.67"/>
		<path d="M490.157,154.218c3.701,0,6.645-0.547,9.268-1.723c2.336-1.047,4.463-2.605,6.898-5.055l-5.146-4.869
			c-1.551,1.561-3.061,2.584-4.746,3.215c-1.67,0.627-3.553,0.906-6.107,0.906c-5.34,0-9.045-2.699-10.434-7.598l-0.006-0.027
			l0.027-0.004c4.322-0.576,12.262-1.273,18.92-4.879c3.24-1.756,5.613-3.795,6.707-6.75c0.855-2.313,1.221-5.197,0.49-7.832
			c-0.986-3.564-2.646-5.643-5.236-7.369c-2.939-1.955-6.979-2.625-11.748-2.625c-2.895,0-5.52,0.502-7.801,1.496
			c-2.25,0.979-4.184,2.439-5.742,4.344c-1.557,1.9-2.75,4.254-3.549,6.99c-0.807,2.762-1.217,5.936-1.217,9.428
			c0,7.783,1.902,13.635,5.654,17.398C479.663,152.55,484.296,154.218,490.157,154.218z M479.294,128.343
			c0.041-1.268,0.105-2.301,0.27-3.232c0.16-0.902,0.41-1.715,0.842-2.715c1.264-3.029,4.584-4.914,8.66-4.914
			c2.906,0,6.736,0.533,8.486,3.064c0.389,0.563,0.982,2.059,0.461,3.715c-0.637,2.012-2.641,3.799-5.959,5.027
			c-4.439,1.643-9.486,2.449-12.732,2.791l-0.027,0.002V128.343z"/>
		<path d="M380.672,214.175c3.243-1.756,5.615-3.797,6.709-6.748c0.856-2.314,1.219-5.199,0.489-7.834
			c-0.986-3.564-2.646-5.643-5.238-7.369c-2.938-1.955-6.977-2.625-11.747-2.625c-2.895,0-5.519,0.504-7.8,1.494
			c-2.251,0.98-4.184,2.441-5.742,4.346c-1.557,1.902-2.75,4.254-3.549,6.99c-0.807,2.764-1.216,5.936-1.216,9.428
			c0,7.783,1.901,13.637,5.651,17.398c3.276,3.287,7.908,4.951,13.77,4.951c3.701,0,6.646-0.545,9.268-1.719
			c2.336-1.047,4.465-2.607,6.898-5.057l-5.146-4.869c-1.551,1.563-3.061,2.584-4.746,3.217c-1.67,0.625-3.553,0.904-6.106,0.904
			c-5.34,0-9.046-2.699-10.434-7.598l-0.008-0.027l0.028-0.004C366.077,218.478,374.016,217.782,380.672,214.175z M361.164,212.069
			l-0.028,0.004v-3.74c0.043-1.268,0.104-2.301,0.27-3.232c0.159-0.902,0.411-1.713,0.842-2.715c1.266-3.031,4.584-4.914,8.66-4.914
			c2.906,0,6.737,0.531,8.488,3.066c0.387,0.561,0.98,2.059,0.459,3.715c-0.635,2.012-2.641,3.795-5.959,5.027
			C369.457,210.921,364.409,211.729,361.164,212.069z"/>
		<path d="M547.747,214.175c3.242-1.756,5.613-3.797,6.709-6.748c0.855-2.314,1.219-5.199,0.488-7.834
			c-0.986-3.564-2.646-5.643-5.238-7.369c-2.936-1.955-6.977-2.625-11.746-2.625c-2.896,0-5.52,0.504-7.801,1.494
			c-2.25,0.98-4.184,2.441-5.744,4.346c-1.553,1.902-2.748,4.254-3.549,6.99c-0.805,2.764-1.213,5.936-1.213,9.428
			c0,7.783,1.9,13.637,5.65,17.398c3.275,3.287,7.908,4.951,13.77,4.951c3.699,0,6.646-0.545,9.268-1.719
			c2.336-1.047,4.465-2.607,6.896-5.057l-5.145-4.869c-1.551,1.563-3.061,2.584-4.746,3.217c-1.67,0.625-3.551,0.904-6.105,0.904
			c-5.342,0-9.049-2.699-10.436-7.598l-0.008-0.027l0.031-0.004C533.151,218.478,541.091,217.782,547.747,214.175z M528.237,212.069
			l-0.027,0.004v-3.74c0.043-1.268,0.105-2.301,0.27-3.232c0.158-0.902,0.41-1.713,0.842-2.715c1.266-3.031,4.582-4.914,8.658-4.914
			c2.908,0,6.74,0.531,8.49,3.066c0.387,0.561,0.98,2.059,0.459,3.715c-0.635,2.012-2.639,3.795-5.959,5.027
			C536.532,210.921,531.483,211.729,528.237,212.069z"/>
		<path d="M658.077,145.786c-1.67,0.627-3.553,0.906-6.107,0.906c-5.342,0-9.045-2.699-10.434-7.598l-0.008-0.027l0.029-0.004
			c4.322-0.576,12.262-1.273,18.92-4.879c3.24-1.756,5.613-3.795,6.707-6.75c0.855-2.313,1.221-5.197,0.49-7.832
			c-0.988-3.564-2.646-5.643-5.238-7.369c-2.938-1.955-6.979-2.625-11.746-2.625c-2.895,0-5.521,0.502-7.801,1.496
			c-2.252,0.979-4.184,2.439-5.742,4.344c-1.557,1.9-2.75,4.254-3.549,6.99c-0.807,2.762-1.215,5.936-1.215,9.428
			c0,7.783,1.9,13.635,5.65,17.398c3.275,3.285,7.908,4.953,13.77,4.953c3.701,0,6.645-0.547,9.268-1.723
			c2.336-1.047,4.463-2.605,6.898-5.055l-5.148-4.869C661.272,144.132,659.763,145.155,658.077,145.786z M640.94,132.081v-3.738
			c0.041-1.268,0.104-2.301,0.27-3.232c0.158-0.902,0.41-1.715,0.84-2.715c1.266-3.029,4.586-4.914,8.662-4.914
			c2.906,0,6.736,0.533,8.488,3.064c0.387,0.563,0.979,2.059,0.457,3.715c-0.635,2.012-2.639,3.799-5.957,5.027
			c-4.439,1.643-9.488,2.449-12.732,2.791L640.94,132.081z"/>
		<path d="M565.089,128.085l-6.795-0.602c-4.59-0.43-5.945-2.404-5.945-4.988c0-3.266,2.631-5.584,7.816-5.584
			c4.076,0,7.896,0.859,10.617,3.184l5.439-5.59c-3.99-3.521-9.516-4.896-15.975-4.896c-9.004,0-16.227,4.811-16.227,13.316
			c0,7.654,4.672,11.348,12.742,12.037l6.883,0.598c4.166,0.35,5.779,2.236,5.779,5.164c0,4.119-4.164,6.01-9.432,6.01
			c-4.25,0-8.92-0.945-12.408-4.555l-5.689,5.76c5.096,5.074,11.043,6.279,18.098,6.279c10.279,0,17.926-4.736,17.926-13.844
			C577.919,132.64,573.163,128.771,565.089,128.085z"/>
		<path d="M335.709,191.427c-2.472-1.088-5.576-1.719-9.378-1.719c-12.496,0-18.266,8.07-18.266,22.006
			c0,16.395,8.576,22.092,19.373,22.092c4.012,0,7.068-1.359,9.713-3.291l7.22,3.291v-60.918h-8.662V191.427z M335.709,219.866
			c-0.013,3.1-2.913,6.461-8.103,6.461c-7.055,0-10.965-4.676-10.965-12.068v-6.027c0.088-2.633,0.255-3.908,1.104-5.865
			c1.362-3.229,4.914-4.836,8.607-4.836c5.307,0,9.339,1.709,9.355,6.209C335.722,207.771,335.724,215.835,335.709,219.866z"/>
		<path d="M423.978,221.161v-48.273h-8.665v48.781c0,6.383,3.569,11.91,11.823,11.91h18.469v-7.396h-16.949
			C425.169,226.183,423.978,224.476,423.978,221.161z"/>
		<path d="M482.294,220.624v-47.736h-8.664v48.266c0,6.654,3.449,12.424,12.057,12.424h4.604v-7.717h-3.115
			C483.536,225.86,482.294,224.081,482.294,220.624z"/>
		<path d="M506.8,220.624v-47.736h-8.662v48.266c0,6.654,3.447,12.424,12.055,12.424h4.604v-7.717h-3.115
			C508.044,225.86,506.8,224.081,506.8,220.624z"/>
		<polygon points="660.663,90.685 640.876,99.712 640.876,107.282 660.663,98.253 		"/>
	</g>
	<g>
		<rect x="278.83" y="109.874" fill="none" width="8.458" height="42.326"/>
		<rect x="278.83" y="92.942" fill="none" width="8.458" height="8.465"/>
		<rect x="287.288" y="109.874" fill="none" width="8.458" height="42.326"/>
		<rect x="287.288" y="92.942" fill="none" width="8.458" height="8.465"/>
		<rect x="295.746" y="109.874" fill="none" width="8.458" height="42.326"/>
		<rect x="295.746" y="92.942" fill="none" width="8.458" height="8.465"/>
		<rect x="304.204" y="109.874" fill="none" width="4.229" height="42.324"/>
		<rect x="304.204" y="92.942" fill="none" width="4.229" height="8.465"/>
	</g>
</g>
</svg>
